# xmcd
#
# Track frame offsets:
#	150
#	28643
#	54416
#	82667
#	111891
#	140236
#	173383
#	200448
#	233541
#	260248
#	291159
#
# Disc length: 4190 seconds
#
# Revision: 1
# Processed by: cddbd v1.5.2PL0 Copyright (c) Steve Scherf et al.
# Submitted via: audiograbber 1.83.01
#
DISCID=92105c0b
DTITLE=versch - Gute Wahl - Control the 2 1/2 of Power Hardtrance
DYEAR=1900
DGENRE=Trance
TTITLE0=Loving Loop - I say it again
TTITLE1=Recall 2 - Operation decoy
TTITLE2=Nautilus - Eternal echoes
TTITLE3=Code 24 - Blow your mind
TTITLE4=X-ite - Cyberworld
TTITLE5=State of Mind - Our destination
TTITLE6=TC Brain - Inertia
TTITLE7=Emperor - Look's good
TTITLE8=Cenith X - Feel
TTITLE9=Ultimade - Automatic
TTITLE10=Future Grip - Bladerunner
EXTD=
EXTT0=
EXTT1=
EXTT2=
EXTT3=
EXTT4=
EXTT5=
EXTT6=
EXTT7=
EXTT8=
EXTT9=
EXTT10=
PLAYORDER=
